{
    "asset" : {
        "generator" : "Khronos glTF Blender I/O v0.9.16",
        "version" : "2.0"
    },
    "scene" : 0,
    "scenes" : [
        {
            "name" : "Scene",
            "nodes" : [
                0,
                1,
                2,
                3,
                4,
                5,
                6,
                7
            ]
        }
    ],
    "nodes" : [
        {
            "mesh" : 0,
            "name" : "Text",
            "rotation" : [
                0.7071067690849304,
                0,
                0,
                0.7071067690849304
            ],
            "scale" : [
                0.10818213224411011,
                0.10818213224411011,
                0.10818213224411011
            ],
            "translation" : [
                -2.7169790267944336,
                2.4253108501434326,
                0.5603033304214478
            ]
        },
        {
            "name" : "Area",
            "rotation" : [
                0.5602148771286011,
                0,
                0,
                0.8283473253250122
            ],
            "scale" : [
                20.778085708618164,
                20.778085708618164,
                20.778085708618164
            ],
            "translation" : [
                -2.178439140319824,
                3.160531759262085,
                6.222792148590088
            ]
        },
        {
            "mesh" : 1,
            "name" : "Cube.010",
            "scale" : [
                0.0876179113984108,
                0.04386600852012634,
                0.04870881512761116
            ],
            "translation" : [
                -2.6099374294281006,
                1.2476816177368164,
                0.5622234344482422
            ]
        },
        {
            "mesh" : 2,
            "name" : "Cube.009",
            "scale" : [
                0.0876179113984108,
                0.04386600852012634,
                0.04870881512761116
            ],
            "translation" : [
                -2.6136362552642822,
                1.4200682640075684,
                0.5622234344482422
            ]
        },
        {
            "mesh" : 3,
            "name" : "Cube.008",
            "scale" : [
                0.0876179113984108,
                0.04386600852012634,
                0.04870881512761116
            ],
            "translation" : [
                -2.6160964965820312,
                1.5862958431243896,
                0.5622234344482422
            ]
        },
        {
            "mesh" : 4,
            "name" : "Cube.006",
            "scale" : [
                0.8459827899932861,
                1.5,
                0.6383389234542847
            ],
            "translation" : [
                0.5826953649520874,
                1.4755275249481201,
                0.04364585876464844
            ]
        },
        {
            "name" : "Lamp",
            "rotation" : [
                0.16907575726509094,
                0.7558803558349609,
                -0.27217137813568115,
                0.570947527885437
            ],
            "translation" : [
                4.076245307922363,
                5.903861999511719,
                -1.0054539442062378
            ]
        },
        {
            "name" : "Camera",
            "rotation" : [
                0.5783327221870422,
                0.3004290759563446,
                -0.2763427495956421,
                0.7063344120979309
            ],
            "translation" : [
                3.737487316131592,
                2.74507999420166,
                6.267569541931152
            ]
        }
    ],
    "materials" : [
        {
            "doubleSided" : true,
            "emissiveFactor" : [
                1,
                1,
                1
            ],
            "name" : "Material.001",
            "pbrMetallicRoughness" : {}
        },
        {
            "doubleSided" : true,
            "name" : "Material.010",
            "pbrMetallicRoughness" : {
                "baseColorTexture" : {
                    "index" : 0,
                    "texCoord" : 0
                },
                "metallicFactor" : 0.11136363446712494,
                "roughnessFactor" : 0.2772727310657501
            }
        },
        {
            "doubleSided" : true,
            "name" : "Material",
            "pbrMetallicRoughness" : {
                "baseColorTexture" : {
                    "index" : 1,
                    "texCoord" : 0
                },
                "metallicFactor" : 0,
                "roughnessFactor" : 0.4583333432674408
            }
        },
        {
            "doubleSided" : true,
            "name" : "Material.007",
            "pbrMetallicRoughness" : {
                "baseColorTexture" : {
                    "index" : 2,
                    "texCoord" : 0
                },
                "metallicFactor" : 0,
                "roughnessFactor" : 0
            }
        }
    ],
    "meshes" : [
        {
            "name" : "Text",
            "primitives" : [
                {
                    "attributes" : {
                        "POSITION" : 0,
                        "NORMAL" : 1,
                        "TEXCOORD_0" : 2
                    },
                    "indices" : 3,
                    "material" : 0
                }
            ]
        },
        {
            "name" : "Cube.010",
            "primitives" : [
                {
                    "attributes" : {
                        "POSITION" : 4,
                        "NORMAL" : 5,
                        "TEXCOORD_0" : 6,
                        "COLOR_0" : 7
                    },
                    "indices" : 8,
                    "material" : 1
                }
            ]
        },
        {
            "name" : "Cube.009",
            "primitives" : [
                {
                    "attributes" : {
                        "POSITION" : 9,
                        "NORMAL" : 10,
                        "TEXCOORD_0" : 11
                    },
                    "indices" : 8,
                    "material" : 1
                }
            ]
        },
        {
            "name" : "Cube.008",
            "primitives" : [
                {
                    "attributes" : {
                        "POSITION" : 12,
                        "NORMAL" : 13,
                        "TEXCOORD_0" : 14
                    },
                    "indices" : 8,
                    "material" : 1
                }
            ]
        },
        {
            "name" : "Cube.006",
            "primitives" : [
                {
                    "attributes" : {
                        "POSITION" : 15,
                        "NORMAL" : 16,
                        "TEXCOORD_0" : 17
                    },
                    "indices" : 18,
                    "material" : 2
                },
                {
                    "attributes" : {
                        "POSITION" : 19,
                        "NORMAL" : 20,
                        "TEXCOORD_0" : 21
                    },
                    "indices" : 22,
                    "material" : 1
                },
                {
                    "attributes" : {
                        "POSITION" : 23,
                        "NORMAL" : 24,
                        "TEXCOORD_0" : 25
                    },
                    "indices" : 26,
                    "material" : 3
                }
            ]
        }
    ],
    "textures" : [
        {
            "source" : 0
        },
        {
            "source" : 1
        },
        {
            "source" : 2
        }
    ],
    "images" : [
        {
            "bufferView" : 9,
            "mimeType" : "image/jpeg",
            "name" : "gallery_swatch"
        },
        {
            "bufferView" : 20,
            "mimeType" : "image/jpeg",
            "name" : "darkstone_512x512"
        },
        {
            "bufferView" : 29,
            "mimeType" : "image/png",
            "name" : "walls512x512"
        }
    ],
    "accessors" : [
        {
            "bufferView" : 0,
            "componentType" : 5126,
            "count" : 1499,
            "max" : [
                9.778040885925293,
                0,
                0.011831519193947315
            ],
            "min" : [
                0.042120207101106644,
                0,
                -0.6691907048225403
            ],
            "type" : "VEC3"
        },
        {
            "bufferView" : 1,
            "componentType" : 5126,
            "count" : 1499,
            "type" : "VEC3"
        },
        {
            "bufferView" : 2,
            "componentType" : 5126,
            "count" : 1499,
            "type" : "VEC2"
        },
        {
            "bufferView" : 3,
            "componentType" : 5123,
            "count" : 1539,
            "type" : "SCALAR"
        },
        {
            "bufferView" : 4,
            "componentType" : 5126,
            "count" : 24,
            "max" : [
                1,
                1,
                1
            ],
            "min" : [
                -1,
                -1,
                -1
            ],
            "type" : "VEC3"
        },
        {
            "bufferView" : 5,
            "componentType" : 5126,
            "count" : 24,
            "type" : "VEC3"
        },
        {
            "bufferView" : 6,
            "componentType" : 5126,
            "count" : 24,
            "type" : "VEC2"
        },
        {
            "bufferView" : 7,
            "componentType" : 5126,
            "count" : 24,
            "type" : "VEC4"
        },
        {
            "bufferView" : 8,
            "componentType" : 5123,
            "count" : 36,
            "type" : "SCALAR"
        },
        {
            "bufferView" : 10,
            "componentType" : 5126,
            "count" : 24,
            "max" : [
                1,
                1,
                1
            ],
            "min" : [
                -1,
                -1,
                -1
            ],
            "type" : "VEC3"
        },
        {
            "bufferView" : 11,
            "componentType" : 5126,
            "count" : 24,
            "type" : "VEC3"
        },
        {
            "bufferView" : 12,
            "componentType" : 5126,
            "count" : 24,
            "type" : "VEC2"
        },
        {
            "bufferView" : 13,
            "componentType" : 5126,
            "count" : 24,
            "max" : [
                1,
                1,
                1
            ],
            "min" : [
                -1,
                -1,
                -1
            ],
            "type" : "VEC3"
        },
        {
            "bufferView" : 14,
            "componentType" : 5126,
            "count" : 24,
            "type" : "VEC3"
        },
        {
            "bufferView" : 15,
            "componentType" : 5126,
            "count" : 24,
            "type" : "VEC2"
        },
        {
            "bufferView" : 16,
            "componentType" : 5126,
            "count" : 16,
            "max" : [
                -2.4764349460601807,
                0.3225526511669159,
                0.8843486309051514
            ],
            "min" : [
                -4.080524921417236,
                0.1938273161649704,
                0.8559380769729614
            ],
            "type" : "VEC3"
        },
        {
            "bufferView" : 17,
            "componentType" : 5126,
            "count" : 16,
            "type" : "VEC3"
        },
        {
            "bufferView" : 18,
            "componentType" : 5126,
            "count" : 16,
            "type" : "VEC2"
        },
        {
            "bufferView" : 19,
            "componentType" : 5123,
            "count" : 24,
            "type" : "SCALAR"
        },
        {
            "bufferView" : 21,
            "componentType" : 5126,
            "count" : 362,
            "max" : [
                -2.4312376976013184,
                1.0061477422714233,
                0.9277721047401428
            ],
            "min" : [
                -4.125722408294678,
                -1.0061477422714233,
                -0.9277721047401428
            ],
            "type" : "VEC3"
        },
        {
            "bufferView" : 22,
            "componentType" : 5126,
            "count" : 362,
            "type" : "VEC3"
        },
        {
            "bufferView" : 23,
            "componentType" : 5126,
            "count" : 362,
            "type" : "VEC2"
        },
        {
            "bufferView" : 24,
            "componentType" : 5123,
            "count" : 564,
            "type" : "SCALAR"
        },
        {
            "bufferView" : 25,
            "componentType" : 5126,
            "count" : 48,
            "max" : [
                -2.4312376976013184,
                1.0061477422714233,
                0.9277721047401428
            ],
            "min" : [
                -4.125722408294678,
                -1.0061477422714233,
                -0.9277721047401428
            ],
            "type" : "VEC3"
        },
        {
            "bufferView" : 26,
            "componentType" : 5126,
            "count" : 48,
            "type" : "VEC3"
        },
        {
            "bufferView" : 27,
            "componentType" : 5126,
            "count" : 48,
            "type" : "VEC2"
        },
        {
            "bufferView" : 28,
            "componentType" : 5123,
            "count" : 72,
            "type" : "SCALAR"
        }
    ],
    "bufferViews" : [
        {
            "buffer" : 0,
            "byteLength" : 17988,
            "byteOffset" : 0
        },
        {
            "buffer" : 0,
            "byteLength" : 17988,
            "byteOffset" : 17988
        },
        {
            "buffer" : 0,
            "byteLength" : 11992,
            "byteOffset" : 35976
        },
        {
            "buffer" : 0,
            "byteLength" : 3078,
            "byteOffset" : 47968
        },
        {
            "buffer" : 0,
            "byteLength" : 288,
            "byteOffset" : 51048
        },
        {
            "buffer" : 0,
            "byteLength" : 288,
            "byteOffset" : 51336
        },
        {
            "buffer" : 0,
            "byteLength" : 192,
            "byteOffset" : 51624
        },
        {
            "buffer" : 0,
            "byteLength" : 384,
            "byteOffset" : 51816
        },
        {
            "buffer" : 0,
            "byteLength" : 72,
            "byteOffset" : 52200
        },
        {
            "buffer" : 0,
            "byteLength" : 484698,
            "byteOffset" : 52272
        },
        {
            "buffer" : 0,
            "byteLength" : 288,
            "byteOffset" : 536972
        },
        {
            "buffer" : 0,
            "byteLength" : 288,
            "byteOffset" : 537260
        },
        {
            "buffer" : 0,
            "byteLength" : 192,
            "byteOffset" : 537548
        },
        {
            "buffer" : 0,
            "byteLength" : 288,
            "byteOffset" : 537740
        },
        {
            "buffer" : 0,
            "byteLength" : 288,
            "byteOffset" : 538028
        },
        {
            "buffer" : 0,
            "byteLength" : 192,
            "byteOffset" : 538316
        },
        {
            "buffer" : 0,
            "byteLength" : 192,
            "byteOffset" : 538508
        },
        {
            "buffer" : 0,
            "byteLength" : 192,
            "byteOffset" : 538700
        },
        {
            "buffer" : 0,
            "byteLength" : 128,
            "byteOffset" : 538892
        },
        {
            "buffer" : 0,
            "byteLength" : 48,
            "byteOffset" : 539020
        },
        {
            "buffer" : 0,
            "byteLength" : 92589,
            "byteOffset" : 539068
        },
        {
            "buffer" : 0,
            "byteLength" : 4344,
            "byteOffset" : 631660
        },
        {
            "buffer" : 0,
            "byteLength" : 4344,
            "byteOffset" : 636004
        },
        {
            "buffer" : 0,
            "byteLength" : 2896,
            "byteOffset" : 640348
        },
        {
            "buffer" : 0,
            "byteLength" : 1128,
            "byteOffset" : 643244
        },
        {
            "buffer" : 0,
            "byteLength" : 576,
            "byteOffset" : 644372
        },
        {
            "buffer" : 0,
            "byteLength" : 576,
            "byteOffset" : 644948
        },
        {
            "buffer" : 0,
            "byteLength" : 384,
            "byteOffset" : 645524
        },
        {
            "buffer" : 0,
            "byteLength" : 144,
            "byteOffset" : 645908
        },
        {
            "buffer" : 0,
            "byteLength" : 479600,
            "byteOffset" : 646052
        }
    ],
    "buffers" : [
        {
            "byteLength" : 1125652,
            "uri" : "data:application/octet-stream;base64,"
        }
    ]
}
