{
    "asset" : {
        "generator" : "Khronos glTF Blender I/O v0.9.36",
        "version" : "2.0"
    },
    "scene" : 0,
    "scenes" : [
        {
            "name" : "Scene",
            "nodes" : [
                0,
                1,
                2,
                3,
                4,
                5,
                6
            ]
        }
    ],
    "nodes" : [
        {
            "mesh" : 0,
            "name" : "welcome",
            "rotation" : [
                0.7071067690849304,
                0,
                0,
                0.7071067690849304
            ],
            "scale" : [
                0.10818213224411011,
                0.10818213224411011,
                0.10818213224411011
            ],
            "translation" : [
                -0.5778131484985352,
                2.4253108501434326,
                0.5603033304214478
            ]
        },
        {
            "mesh" : 1,
            "name" : "vending",
            "rotation" : [
                0.7071067690849304,
                0,
                0,
                0.7071067690849304
            ],
            "scale" : [
                0.4051755964756012,
                0.4051755964756012,
                0.4051755964756012
            ],
            "translation" : [
                -0.771857500076294,
                3.553269863128662,
                0.6281498074531555
            ]
        },
        {
            "mesh" : 2,
            "name" : "machine",
            "scale" : [
                0.8459827899932861,
                1.5,
                0.6383389234542847
            ],
            "translation" : [
                2.7218613624572754,
                1.4755275249481201,
                0.04364585876464844
            ]
        },
        {
            "mesh" : 3,
            "name" : "machine_collider",
            "scale" : [
                0.7737563252449036,
                0.7737563252449036,
                0.7737563252449036
            ],
            "translation" : [
                -0.04010295867919922,
                0.7446352243423462,
                6.389617919921875e-05
            ]
        },
        {
            "name" : "Area",
            "rotation" : [
                0.5602148771286011,
                0,
                0,
                0.8283473253250122
            ],
            "scale" : [
                20.778085708618164,
                20.778085708618164,
                20.778085708618164
            ],
            "translation" : [
                -0.03927326202392578,
                3.160531759262085,
                6.222792148590088
            ]
        },
        {
            "name" : "Lamp",
            "rotation" : [
                0.16907575726509094,
                0.7558803558349609,
                -0.27217137813568115,
                0.570947527885437
            ],
            "translation" : [
                4.076245307922363,
                5.903861999511719,
                -1.0054539442062378
            ]
        },
        {
            "name" : "Camera",
            "rotation" : [
                0.5783327221870422,
                0.3004290759563446,
                -0.2763427495956421,
                0.7063344120979309
            ],
            "translation" : [
                3.737487316131592,
                2.74507999420166,
                6.267569541931152
            ]
        }
    ],
    "materials" : [
        {
            "doubleSided" : true,
            "emissiveFactor" : [
                1,
                0.2916054427623749,
                0.02341839112341404
            ],
            "name" : "Material.001",
            "pbrMetallicRoughness" : {}
        },
        {
            "doubleSided" : true,
            "name" : "Material",
            "pbrMetallicRoughness" : {
                "baseColorTexture" : {
                    "index" : 0,
                    "texCoord" : 0
                },
                "metallicFactor" : 0,
                "roughnessFactor" : 0.4583333432674408
            }
        },
        {
            "doubleSided" : true,
            "name" : "Material.010",
            "pbrMetallicRoughness" : {
                "baseColorTexture" : {
                    "index" : 1,
                    "texCoord" : 0
                },
                "metallicFactor" : 0.11136363446712494,
                "roughnessFactor" : 0.2772727310657501
            }
        },
        {
            "doubleSided" : true,
            "name" : "Material.007",
            "pbrMetallicRoughness" : {
                "baseColorTexture" : {
                    "index" : 2,
                    "texCoord" : 0
                },
                "metallicFactor" : 0,
                "roughnessFactor" : 0
            }
        }
    ],
    "meshes" : [
        {
            "name" : "Text",
            "primitives" : [
                {
                    "attributes" : {
                        "POSITION" : 0,
                        "NORMAL" : 1,
                        "TEXCOORD_0" : 2
                    },
                    "indices" : 3,
                    "material" : 0
                }
            ]
        },
        {
            "name" : "Text.001",
            "primitives" : [
                {
                    "attributes" : {
                        "POSITION" : 4,
                        "NORMAL" : 5
                    },
                    "indices" : 6,
                    "material" : 0
                }
            ]
        },
        {
            "name" : "Cube.006",
            "primitives" : [
                {
                    "attributes" : {
                        "POSITION" : 7,
                        "NORMAL" : 8,
                        "TEXCOORD_0" : 9
                    },
                    "indices" : 10,
                    "material" : 1
                },
                {
                    "attributes" : {
                        "POSITION" : 11,
                        "NORMAL" : 12,
                        "TEXCOORD_0" : 13
                    },
                    "indices" : 14,
                    "material" : 2
                },
                {
                    "attributes" : {
                        "POSITION" : 15,
                        "NORMAL" : 16,
                        "TEXCOORD_0" : 17
                    },
                    "indices" : 18,
                    "material" : 3
                }
            ]
        },
        {
            "name" : "Cube",
            "primitives" : [
                {
                    "attributes" : {
                        "POSITION" : 19,
                        "NORMAL" : 20,
                        "TEXCOORD_0" : 21
                    },
                    "indices" : 22
                }
            ]
        }
    ],
    "textures" : [
        {
            "source" : 0
        },
        {
            "source" : 1
        },
        {
            "source" : 2
        }
    ],
    "images" : [
        {
            "bufferView" : 11,
            "mimeType" : "image/jpeg",
            "name" : "darkstone_512x512"
        },
        {
            "bufferView" : 16,
            "mimeType" : "image/jpeg",
            "name" : "gallery_swatch"
        },
        {
            "bufferView" : 21,
            "mimeType" : "image/png",
            "name" : "walls512x512"
        }
    ],
    "accessors" : [
        {
            "bufferView" : 0,
            "componentType" : 5126,
            "count" : 1497,
            "max" : [
                9.778040885925293,
                0,
                0.011831519193947315
            ],
            "min" : [
                0.042120207101106644,
                0,
                -0.6691907048225403
            ],
            "type" : "VEC3"
        },
        {
            "bufferView" : 1,
            "componentType" : 5126,
            "count" : 1497,
            "type" : "VEC3"
        },
        {
            "bufferView" : 2,
            "componentType" : 5126,
            "count" : 1497,
            "type" : "VEC2"
        },
        {
            "bufferView" : 3,
            "componentType" : 5123,
            "count" : 1539,
            "type" : "SCALAR"
        },
        {
            "bufferView" : 4,
            "componentType" : 5126,
            "count" : 1261,
            "max" : [
                3.453528881072998,
                0,
                1.0065561532974243
            ],
            "min" : [
                0.019282683730125427,
                -0.10000000149011612,
                -0.6239876747131348
            ],
            "type" : "VEC3"
        },
        {
            "bufferView" : 5,
            "componentType" : 5126,
            "count" : 1261,
            "type" : "VEC3"
        },
        {
            "bufferView" : 6,
            "componentType" : 5123,
            "count" : 1992,
            "type" : "SCALAR"
        },
        {
            "bufferView" : 7,
            "componentType" : 5126,
            "count" : 16,
            "max" : [
                -2.4764349460601807,
                0.3225526511669159,
                0.8843486309051514
            ],
            "min" : [
                -4.080524921417236,
                0.1938273161649704,
                0.8559380769729614
            ],
            "type" : "VEC3"
        },
        {
            "bufferView" : 8,
            "componentType" : 5126,
            "count" : 16,
            "type" : "VEC3"
        },
        {
            "bufferView" : 9,
            "componentType" : 5126,
            "count" : 16,
            "type" : "VEC2"
        },
        {
            "bufferView" : 10,
            "componentType" : 5123,
            "count" : 24,
            "type" : "SCALAR"
        },
        {
            "bufferView" : 12,
            "componentType" : 5126,
            "count" : 362,
            "max" : [
                -2.4312376976013184,
                1.0061477422714233,
                0.9277721047401428
            ],
            "min" : [
                -4.125722408294678,
                -1.0061477422714233,
                -0.9277721047401428
            ],
            "type" : "VEC3"
        },
        {
            "bufferView" : 13,
            "componentType" : 5126,
            "count" : 362,
            "type" : "VEC3"
        },
        {
            "bufferView" : 14,
            "componentType" : 5126,
            "count" : 362,
            "type" : "VEC2"
        },
        {
            "bufferView" : 15,
            "componentType" : 5123,
            "count" : 564,
            "type" : "SCALAR"
        },
        {
            "bufferView" : 17,
            "componentType" : 5126,
            "count" : 48,
            "max" : [
                -2.4312376976013184,
                1.0061477422714233,
                0.9277721047401428
            ],
            "min" : [
                -4.125722408294678,
                -1.0061477422714233,
                -0.9277721047401428
            ],
            "type" : "VEC3"
        },
        {
            "bufferView" : 18,
            "componentType" : 5126,
            "count" : 48,
            "type" : "VEC3"
        },
        {
            "bufferView" : 19,
            "componentType" : 5126,
            "count" : 48,
            "type" : "VEC2"
        },
        {
            "bufferView" : 20,
            "componentType" : 5123,
            "count" : 72,
            "type" : "SCALAR"
        },
        {
            "bufferView" : 22,
            "componentType" : 5126,
            "count" : 24,
            "max" : [
                1,
                2.9504847526550293,
                1
            ],
            "min" : [
                -1,
                -1,
                -1
            ],
            "type" : "VEC3"
        },
        {
            "bufferView" : 23,
            "componentType" : 5126,
            "count" : 24,
            "type" : "VEC3"
        },
        {
            "bufferView" : 24,
            "componentType" : 5126,
            "count" : 24,
            "type" : "VEC2"
        },
        {
            "bufferView" : 25,
            "componentType" : 5123,
            "count" : 36,
            "type" : "SCALAR"
        }
    ],
    "bufferViews" : [
        {
            "buffer" : 0,
            "byteLength" : 17964,
            "byteOffset" : 0
        },
        {
            "buffer" : 0,
            "byteLength" : 17964,
            "byteOffset" : 17964
        },
        {
            "buffer" : 0,
            "byteLength" : 11976,
            "byteOffset" : 35928
        },
        {
            "buffer" : 0,
            "byteLength" : 3078,
            "byteOffset" : 47904
        },
        {
            "buffer" : 0,
            "byteLength" : 15132,
            "byteOffset" : 50984
        },
        {
            "buffer" : 0,
            "byteLength" : 15132,
            "byteOffset" : 66116
        },
        {
            "buffer" : 0,
            "byteLength" : 3984,
            "byteOffset" : 81248
        },
        {
            "buffer" : 0,
            "byteLength" : 192,
            "byteOffset" : 85232
        },
        {
            "buffer" : 0,
            "byteLength" : 192,
            "byteOffset" : 85424
        },
        {
            "buffer" : 0,
            "byteLength" : 128,
            "byteOffset" : 85616
        },
        {
            "buffer" : 0,
            "byteLength" : 48,
            "byteOffset" : 85744
        },
        {
            "buffer" : 0,
            "byteLength" : 92589,
            "byteOffset" : 85792
        },
        {
            "buffer" : 0,
            "byteLength" : 4344,
            "byteOffset" : 178384
        },
        {
            "buffer" : 0,
            "byteLength" : 4344,
            "byteOffset" : 182728
        },
        {
            "buffer" : 0,
            "byteLength" : 2896,
            "byteOffset" : 187072
        },
        {
            "buffer" : 0,
            "byteLength" : 1128,
            "byteOffset" : 189968
        },
        {
            "buffer" : 0,
            "byteLength" : 484698,
            "byteOffset" : 191096
        },
        {
            "buffer" : 0,
            "byteLength" : 576,
            "byteOffset" : 675796
        },
        {
            "buffer" : 0,
            "byteLength" : 576,
            "byteOffset" : 676372
        },
        {
            "buffer" : 0,
            "byteLength" : 384,
            "byteOffset" : 676948
        },
        {
            "buffer" : 0,
            "byteLength" : 144,
            "byteOffset" : 677332
        },
        {
            "buffer" : 0,
            "byteLength" : 479600,
            "byteOffset" : 677476
        },
        {
            "buffer" : 0,
            "byteLength" : 288,
            "byteOffset" : 1157076
        },
        {
            "buffer" : 0,
            "byteLength" : 288,
            "byteOffset" : 1157364
        },
        {
            "buffer" : 0,
            "byteLength" : 192,
            "byteOffset" : 1157652
        },
        {
            "buffer" : 0,
            "byteLength" : 72,
            "byteOffset" : 1157844
        }
    ],
    "buffers" : [
        {
            "byteLength" : 1157916,
            "uri" : "data:application/octet-stream;base64,"
        }
    ]
}
