{
    "asset" : {
        "generator" : "Khronos glTF Blender I/O v0.9.16",
        "version" : "2.0"
    },
    "scene" : 0,
    "scenes" : [
        {
            "name" : "Scene",
            "nodes" : [
                0,
                1,
                2,
                3,
                4,
                5,
                6,
                7
            ]
        }
    ],
    "nodes" : [
        {
            "mesh" : 0,
            "name" : "Text"
        },
        {
            "name" : "Area",
            "rotation" : [
                0.5602148771286011,
                0,
                0,
                0.8283473253250122
            ],
            "scale" : [
                20.778085708618164,
                20.778085708618164,
                20.778085708618164
            ],
            "translation" : [
                0.002475261688232422,
                3.160531759262085,
                6.235596179962158
            ]
        },
        {
            "mesh" : 1,
            "name" : "Cube.010"
        },
        {
            "mesh" : 2,
            "name" : "Cube.009"
        },
        {
            "mesh" : 3,
            "name" : "Cube.008"
        },
        {
            "mesh" : 4,
            "name" : "Cube.006"
        },
        {
            "name" : "Lamp",
            "rotation" : [
                0.16907575726509094,
                0.7558803558349609,
                -0.27217137813568115,
                0.570947527885437
            ],
            "translation" : [
                6.25715970993042,
                5.903861999511719,
                -0.9926501512527466
            ]
        },
        {
            "name" : "Camera",
            "rotation" : [
                0.5783327221870422,
                0.3004290759563446,
                -0.2763427495956421,
                0.7063344120979309
            ],
            "translation" : [
                5.918401718139648,
                2.74507999420166,
                6.280373573303223
            ]
        }
    ],
    "materials" : [
        {
            "doubleSided" : true,
            "emissiveFactor" : [
                1,
                1,
                1
            ],
            "name" : "Material.001",
            "pbrMetallicRoughness" : {}
        },
        {
            "doubleSided" : true,
            "name" : "Material.010",
            "pbrMetallicRoughness" : {
                "baseColorTexture" : {
                    "index" : 0,
                    "texCoord" : 0
                },
                "metallicFactor" : 0.11136363446712494,
                "roughnessFactor" : 0.42500001192092896
            }
        },
        {
            "doubleSided" : true,
            "name" : "Material",
            "pbrMetallicRoughness" : {
                "baseColorTexture" : {
                    "index" : 1,
                    "texCoord" : 0
                },
                "metallicFactor" : 0,
                "roughnessFactor" : 0.4583333432674408
            }
        },
        {
            "doubleSided" : true,
            "name" : "Material.007",
            "pbrMetallicRoughness" : {
                "baseColorTexture" : {
                    "index" : 2,
                    "texCoord" : 0
                },
                "metallicFactor" : 0,
                "roughnessFactor" : 0
            }
        }
    ],
    "meshes" : [
        {
            "name" : "Text",
            "primitives" : [
                {
                    "attributes" : {
                        "POSITION" : 0,
                        "NORMAL" : 1,
                        "TEXCOORD_0" : 2
                    },
                    "indices" : 3,
                    "material" : 0
                }
            ]
        },
        {
            "name" : "Cube.010",
            "primitives" : [
                {
                    "attributes" : {
                        "POSITION" : 4,
                        "NORMAL" : 5,
                        "TEXCOORD_0" : 6,
                        "COLOR_0" : 7
                    },
                    "indices" : 8,
                    "material" : 1
                }
            ]
        },
        {
            "name" : "Cube.009",
            "primitives" : [
                {
                    "attributes" : {
                        "POSITION" : 9,
                        "NORMAL" : 10,
                        "TEXCOORD_0" : 11
                    },
                    "indices" : 8,
                    "material" : 1
                }
            ]
        },
        {
            "name" : "Cube.008",
            "primitives" : [
                {
                    "attributes" : {
                        "POSITION" : 12,
                        "NORMAL" : 13,
                        "TEXCOORD_0" : 14
                    },
                    "indices" : 8,
                    "material" : 1
                }
            ]
        },
        {
            "name" : "Cube.006",
            "primitives" : [
                {
                    "attributes" : {
                        "POSITION" : 15,
                        "NORMAL" : 16,
                        "TEXCOORD_0" : 17
                    },
                    "indices" : 18,
                    "material" : 2
                },
                {
                    "attributes" : {
                        "POSITION" : 19,
                        "NORMAL" : 20,
                        "TEXCOORD_0" : 21
                    },
                    "indices" : 22,
                    "material" : 1
                },
                {
                    "attributes" : {
                        "POSITION" : 23,
                        "NORMAL" : 24,
                        "TEXCOORD_0" : 25
                    },
                    "indices" : 26,
                    "material" : 3
                }
            ]
        }
    ],
    "textures" : [
        {
            "source" : 0
        },
        {
            "source" : 1
        },
        {
            "source" : 2
        }
    ],
    "images" : [
        {
            "bufferView" : 9,
            "mimeType" : "image/jpeg",
            "name" : "gallery_swatch"
        },
        {
            "bufferView" : 20,
            "mimeType" : "image/jpeg",
            "name" : "darkstone_512x512"
        },
        {
            "bufferView" : 29,
            "mimeType" : "image/png",
            "name" : "walls512x512"
        }
    ],
    "accessors" : [
        {
            "bufferView" : 0,
            "componentType" : 5126,
            "count" : 1487,
            "max" : [
                0.5217447280883789,
                2.4977052211761475,
                0.573107123374939
            ],
            "min" : [
                -0.5315079689025879,
                2.4240307807922363,
                0.573107123374939
            ],
            "type" : "VEC3"
        },
        {
            "bufferView" : 1,
            "componentType" : 5126,
            "count" : 1487,
            "type" : "VEC3"
        },
        {
            "bufferView" : 2,
            "componentType" : 5126,
            "count" : 1487,
            "type" : "VEC2"
        },
        {
            "bufferView" : 3,
            "componentType" : 5123,
            "count" : 1539,
            "type" : "SCALAR"
        },
        {
            "bufferView" : 4,
            "componentType" : 5126,
            "count" : 24,
            "max" : [
                -0.34140512347221375,
                1.2915476560592651,
                0.6237360239028931
            ],
            "min" : [
                -0.5166409611701965,
                1.2038155794143677,
                0.5263184309005737
            ],
            "type" : "VEC3"
        },
        {
            "bufferView" : 5,
            "componentType" : 5126,
            "count" : 24,
            "type" : "VEC3"
        },
        {
            "bufferView" : 6,
            "componentType" : 5126,
            "count" : 24,
            "type" : "VEC2"
        },
        {
            "bufferView" : 7,
            "componentType" : 5126,
            "count" : 24,
            "type" : "VEC4"
        },
        {
            "bufferView" : 8,
            "componentType" : 5123,
            "count" : 36,
            "type" : "SCALAR"
        },
        {
            "bufferView" : 10,
            "componentType" : 5126,
            "count" : 24,
            "max" : [
                -0.3451039493083954,
                1.463934302330017,
                0.6237360239028931
            ],
            "min" : [
                -0.5203397870063782,
                1.3762022256851196,
                0.5263184309005737
            ],
            "type" : "VEC3"
        },
        {
            "bufferView" : 11,
            "componentType" : 5126,
            "count" : 24,
            "type" : "VEC3"
        },
        {
            "bufferView" : 12,
            "componentType" : 5126,
            "count" : 24,
            "type" : "VEC2"
        },
        {
            "bufferView" : 13,
            "componentType" : 5126,
            "count" : 24,
            "max" : [
                -0.3475641906261444,
                1.6301618814468384,
                0.6237360239028931
            ],
            "min" : [
                -0.5228000283241272,
                1.542429804801941,
                0.5263184309005737
            ],
            "type" : "VEC3"
        },
        {
            "bufferView" : 14,
            "componentType" : 5126,
            "count" : 24,
            "type" : "VEC3"
        },
        {
            "bufferView" : 15,
            "componentType" : 5126,
            "count" : 24,
            "type" : "VEC2"
        },
        {
            "bufferView" : 16,
            "componentType" : 5126,
            "count" : 16,
            "max" : [
                0.6685886383056641,
                1.9593565464019775,
                0.6209638118743896
            ],
            "min" : [
                -0.6884438991546631,
                1.7662684917449951,
                0.6028282642364502
            ],
            "type" : "VEC3"
        },
        {
            "bufferView" : 17,
            "componentType" : 5126,
            "count" : 16,
            "type" : "VEC3"
        },
        {
            "bufferView" : 18,
            "componentType" : 5126,
            "count" : 16,
            "type" : "VEC2"
        },
        {
            "bufferView" : 19,
            "componentType" : 5123,
            "count" : 24,
            "type" : "SCALAR"
        },
        {
            "bufferView" : 21,
            "componentType" : 5126,
            "count" : 358,
            "max" : [
                0.706824541091919,
                2.9847490787506104,
                0.648682713508606
            ],
            "min" : [
                -0.7266802787780762,
                -0.03369402885437012,
                -0.5357834100723267
            ],
            "type" : "VEC3"
        },
        {
            "bufferView" : 22,
            "componentType" : 5126,
            "count" : 358,
            "type" : "VEC3"
        },
        {
            "bufferView" : 23,
            "componentType" : 5126,
            "count" : 358,
            "type" : "VEC2"
        },
        {
            "bufferView" : 24,
            "componentType" : 5123,
            "count" : 564,
            "type" : "SCALAR"
        },
        {
            "bufferView" : 25,
            "componentType" : 5126,
            "count" : 48,
            "max" : [
                0.706824541091919,
                2.9847490787506104,
                0.648682713508606
            ],
            "min" : [
                -0.7266802787780762,
                -0.03369402885437012,
                -0.5357834100723267
            ],
            "type" : "VEC3"
        },
        {
            "bufferView" : 26,
            "componentType" : 5126,
            "count" : 48,
            "type" : "VEC3"
        },
        {
            "bufferView" : 27,
            "componentType" : 5126,
            "count" : 48,
            "type" : "VEC2"
        },
        {
            "bufferView" : 28,
            "componentType" : 5123,
            "count" : 72,
            "type" : "SCALAR"
        }
    ],
    "bufferViews" : [
        {
            "buffer" : 0,
            "byteLength" : 17844,
            "byteOffset" : 0
        },
        {
            "buffer" : 0,
            "byteLength" : 17844,
            "byteOffset" : 17844
        },
        {
            "buffer" : 0,
            "byteLength" : 11896,
            "byteOffset" : 35688
        },
        {
            "buffer" : 0,
            "byteLength" : 3078,
            "byteOffset" : 47584
        },
        {
            "buffer" : 0,
            "byteLength" : 288,
            "byteOffset" : 50664
        },
        {
            "buffer" : 0,
            "byteLength" : 288,
            "byteOffset" : 50952
        },
        {
            "buffer" : 0,
            "byteLength" : 192,
            "byteOffset" : 51240
        },
        {
            "buffer" : 0,
            "byteLength" : 384,
            "byteOffset" : 51432
        },
        {
            "buffer" : 0,
            "byteLength" : 72,
            "byteOffset" : 51816
        },
        {
            "buffer" : 0,
            "byteLength" : 484698,
            "byteOffset" : 51888
        },
        {
            "buffer" : 0,
            "byteLength" : 288,
            "byteOffset" : 536588
        },
        {
            "buffer" : 0,
            "byteLength" : 288,
            "byteOffset" : 536876
        },
        {
            "buffer" : 0,
            "byteLength" : 192,
            "byteOffset" : 537164
        },
        {
            "buffer" : 0,
            "byteLength" : 288,
            "byteOffset" : 537356
        },
        {
            "buffer" : 0,
            "byteLength" : 288,
            "byteOffset" : 537644
        },
        {
            "buffer" : 0,
            "byteLength" : 192,
            "byteOffset" : 537932
        },
        {
            "buffer" : 0,
            "byteLength" : 192,
            "byteOffset" : 538124
        },
        {
            "buffer" : 0,
            "byteLength" : 192,
            "byteOffset" : 538316
        },
        {
            "buffer" : 0,
            "byteLength" : 128,
            "byteOffset" : 538508
        },
        {
            "buffer" : 0,
            "byteLength" : 48,
            "byteOffset" : 538636
        },
        {
            "buffer" : 0,
            "byteLength" : 92589,
            "byteOffset" : 538684
        },
        {
            "buffer" : 0,
            "byteLength" : 4296,
            "byteOffset" : 631276
        },
        {
            "buffer" : 0,
            "byteLength" : 4296,
            "byteOffset" : 635572
        },
        {
            "buffer" : 0,
            "byteLength" : 2864,
            "byteOffset" : 639868
        },
        {
            "buffer" : 0,
            "byteLength" : 1128,
            "byteOffset" : 642732
        },
        {
            "buffer" : 0,
            "byteLength" : 576,
            "byteOffset" : 643860
        },
        {
            "buffer" : 0,
            "byteLength" : 576,
            "byteOffset" : 644436
        },
        {
            "buffer" : 0,
            "byteLength" : 384,
            "byteOffset" : 645012
        },
        {
            "buffer" : 0,
            "byteLength" : 144,
            "byteOffset" : 645396
        },
        {
            "buffer" : 0,
            "byteLength" : 479600,
            "byteOffset" : 645540
        }
    ],
    "buffers" : [
        {
            "byteLength" : 1125140,
            "uri" : "data:application/octet-stream;base64,"
        }
    ]
}
