{
    "asset" : {
        "generator" : "Khronos glTF Blender I/O v0.9.36",
        "version" : "2.0"
    },
    "scene" : 0,
    "scenes" : [
        {
            "name" : "Scene",
            "nodes" : [
                0,
                1,
                2,
                3,
                4,
                5,
                6
            ]
        }
    ],
    "nodes" : [
        {
            "mesh" : 0,
            "name" : "welcome"
        },
        {
            "mesh" : 1,
            "name" : "activation",
            "rotation" : [
                0.7071067690849304,
                0,
                0,
                0.7071067690849304
            ],
            "scale" : [
                0.41383281350135803,
                0.41383281350135803,
                0.41383281350135803
            ],
            "translation" : [
                -0.002462029457092285,
                3.5724527835845947,
                0.6151488423347473
            ]
        },
        {
            "mesh" : 2,
            "name" : "machine_collider",
            "scale" : [
                0.7616971731185913,
                0.7616971731185913,
                0.7616971731185913
            ],
            "translation" : [
                0.012372612953186035,
                0.7234660983085632,
                0.015513896942138672
            ]
        },
        {
            "mesh" : 3,
            "name" : "machine"
        },
        {
            "name" : "Area",
            "rotation" : [
                0.5602148771286011,
                0,
                0,
                0.8283473253250122
            ],
            "scale" : [
                20.778085708618164,
                20.778085708618164,
                20.778085708618164
            ],
            "translation" : [
                0.002475261688232422,
                3.160531759262085,
                6.235596179962158
            ]
        },
        {
            "name" : "Lamp",
            "rotation" : [
                0.16907575726509094,
                0.7558803558349609,
                -0.27217137813568115,
                0.570947527885437
            ],
            "translation" : [
                6.25715970993042,
                5.903861999511719,
                -0.9926501512527466
            ]
        },
        {
            "name" : "Camera",
            "rotation" : [
                0.5783327221870422,
                0.3004290759563446,
                -0.2763427495956421,
                0.7063344120979309
            ],
            "translation" : [
                5.918401718139648,
                2.74507999420166,
                6.280373573303223
            ]
        }
    ],
    "materials" : [
        {
            "doubleSided" : true,
            "emissiveFactor" : [
                1,
                0.1823633313179016,
                0.01344325765967369
            ],
            "name" : "Material.001",
            "pbrMetallicRoughness" : {}
        },
        {
            "doubleSided" : true,
            "name" : "Material",
            "pbrMetallicRoughness" : {
                "baseColorTexture" : {
                    "index" : 0,
                    "texCoord" : 0
                },
                "metallicFactor" : 0,
                "roughnessFactor" : 0.4583333432674408
            }
        },
        {
            "doubleSided" : true,
            "name" : "Material.010",
            "pbrMetallicRoughness" : {
                "baseColorTexture" : {
                    "index" : 1,
                    "texCoord" : 0
                },
                "metallicFactor" : 0.11136363446712494,
                "roughnessFactor" : 0.42500001192092896
            }
        },
        {
            "doubleSided" : true,
            "name" : "Material.007",
            "pbrMetallicRoughness" : {
                "baseColorTexture" : {
                    "index" : 2,
                    "texCoord" : 0
                },
                "metallicFactor" : 0,
                "roughnessFactor" : 0
            }
        }
    ],
    "meshes" : [
        {
            "name" : "Text",
            "primitives" : [
                {
                    "attributes" : {
                        "POSITION" : 0,
                        "NORMAL" : 1,
                        "TEXCOORD_0" : 2
                    },
                    "indices" : 3,
                    "material" : 0
                }
            ]
        },
        {
            "name" : "Text.001",
            "primitives" : [
                {
                    "attributes" : {
                        "POSITION" : 4,
                        "NORMAL" : 5
                    },
                    "indices" : 6,
                    "material" : 0
                }
            ]
        },
        {
            "name" : "Cube",
            "primitives" : [
                {
                    "attributes" : {
                        "POSITION" : 7,
                        "NORMAL" : 8,
                        "TEXCOORD_0" : 9
                    },
                    "indices" : 10
                }
            ]
        },
        {
            "name" : "Cube.006",
            "primitives" : [
                {
                    "attributes" : {
                        "POSITION" : 11,
                        "NORMAL" : 12,
                        "TEXCOORD_0" : 13
                    },
                    "indices" : 14,
                    "material" : 1
                },
                {
                    "attributes" : {
                        "POSITION" : 15,
                        "NORMAL" : 16,
                        "TEXCOORD_0" : 17
                    },
                    "indices" : 18,
                    "material" : 2
                },
                {
                    "attributes" : {
                        "POSITION" : 19,
                        "NORMAL" : 20,
                        "TEXCOORD_0" : 21
                    },
                    "indices" : 22,
                    "material" : 3
                }
            ]
        }
    ],
    "textures" : [
        {
            "source" : 0
        },
        {
            "source" : 1
        },
        {
            "source" : 2
        }
    ],
    "images" : [
        {
            "bufferView" : 15,
            "mimeType" : "image/jpeg",
            "name" : "darkstone_512x512"
        },
        {
            "bufferView" : 20,
            "mimeType" : "image/jpeg",
            "name" : "gallery_swatch"
        },
        {
            "bufferView" : 25,
            "mimeType" : "image/png",
            "name" : "walls512x512"
        }
    ],
    "accessors" : [
        {
            "bufferView" : 0,
            "componentType" : 5126,
            "count" : 1490,
            "max" : [
                0.5217447280883789,
                2.4977052211761475,
                0.573107123374939
            ],
            "min" : [
                -0.5315079689025879,
                2.4240307807922363,
                0.573107123374939
            ],
            "type" : "VEC3"
        },
        {
            "bufferView" : 1,
            "componentType" : 5126,
            "count" : 1490,
            "type" : "VEC3"
        },
        {
            "bufferView" : 2,
            "componentType" : 5126,
            "count" : 1490,
            "type" : "VEC2"
        },
        {
            "bufferView" : 3,
            "componentType" : 5123,
            "count" : 1539,
            "type" : "SCALAR"
        },
        {
            "bufferView" : 4,
            "componentType" : 5126,
            "count" : 1645,
            "max" : [
                2.2984957695007324,
                0.05000000074505806,
                1.0065561532974243
            ],
            "min" : [
                -2.3370614051818848,
                -0.05000000074505806,
                -0.6251446604728699
            ],
            "type" : "VEC3"
        },
        {
            "bufferView" : 5,
            "componentType" : 5126,
            "count" : 1645,
            "type" : "VEC3"
        },
        {
            "bufferView" : 6,
            "componentType" : 5123,
            "count" : 2340,
            "type" : "SCALAR"
        },
        {
            "bufferView" : 7,
            "componentType" : 5126,
            "count" : 24,
            "max" : [
                1,
                2.9773201942443848,
                1
            ],
            "min" : [
                -1,
                -1,
                -1
            ],
            "type" : "VEC3"
        },
        {
            "bufferView" : 8,
            "componentType" : 5126,
            "count" : 24,
            "type" : "VEC3"
        },
        {
            "bufferView" : 9,
            "componentType" : 5126,
            "count" : 24,
            "type" : "VEC2"
        },
        {
            "bufferView" : 10,
            "componentType" : 5123,
            "count" : 36,
            "type" : "SCALAR"
        },
        {
            "bufferView" : 11,
            "componentType" : 5126,
            "count" : 16,
            "max" : [
                0.6685886383056641,
                1.9593565464019775,
                0.6209638118743896
            ],
            "min" : [
                -0.6884438991546631,
                1.7662684917449951,
                0.6028282642364502
            ],
            "type" : "VEC3"
        },
        {
            "bufferView" : 12,
            "componentType" : 5126,
            "count" : 16,
            "type" : "VEC3"
        },
        {
            "bufferView" : 13,
            "componentType" : 5126,
            "count" : 16,
            "type" : "VEC2"
        },
        {
            "bufferView" : 14,
            "componentType" : 5123,
            "count" : 24,
            "type" : "SCALAR"
        },
        {
            "bufferView" : 16,
            "componentType" : 5126,
            "count" : 358,
            "max" : [
                0.706824541091919,
                2.9847490787506104,
                0.648682713508606
            ],
            "min" : [
                -0.7266802787780762,
                -0.03369402885437012,
                -0.5357834100723267
            ],
            "type" : "VEC3"
        },
        {
            "bufferView" : 17,
            "componentType" : 5126,
            "count" : 358,
            "type" : "VEC3"
        },
        {
            "bufferView" : 18,
            "componentType" : 5126,
            "count" : 358,
            "type" : "VEC2"
        },
        {
            "bufferView" : 19,
            "componentType" : 5123,
            "count" : 564,
            "type" : "SCALAR"
        },
        {
            "bufferView" : 21,
            "componentType" : 5126,
            "count" : 48,
            "max" : [
                0.706824541091919,
                2.9847490787506104,
                0.648682713508606
            ],
            "min" : [
                -0.7266802787780762,
                -0.03369402885437012,
                -0.5357834100723267
            ],
            "type" : "VEC3"
        },
        {
            "bufferView" : 22,
            "componentType" : 5126,
            "count" : 48,
            "type" : "VEC3"
        },
        {
            "bufferView" : 23,
            "componentType" : 5126,
            "count" : 48,
            "type" : "VEC2"
        },
        {
            "bufferView" : 24,
            "componentType" : 5123,
            "count" : 72,
            "type" : "SCALAR"
        }
    ],
    "bufferViews" : [
        {
            "buffer" : 0,
            "byteLength" : 17880,
            "byteOffset" : 0
        },
        {
            "buffer" : 0,
            "byteLength" : 17880,
            "byteOffset" : 17880
        },
        {
            "buffer" : 0,
            "byteLength" : 11920,
            "byteOffset" : 35760
        },
        {
            "buffer" : 0,
            "byteLength" : 3078,
            "byteOffset" : 47680
        },
        {
            "buffer" : 0,
            "byteLength" : 19740,
            "byteOffset" : 50760
        },
        {
            "buffer" : 0,
            "byteLength" : 19740,
            "byteOffset" : 70500
        },
        {
            "buffer" : 0,
            "byteLength" : 4680,
            "byteOffset" : 90240
        },
        {
            "buffer" : 0,
            "byteLength" : 288,
            "byteOffset" : 94920
        },
        {
            "buffer" : 0,
            "byteLength" : 288,
            "byteOffset" : 95208
        },
        {
            "buffer" : 0,
            "byteLength" : 192,
            "byteOffset" : 95496
        },
        {
            "buffer" : 0,
            "byteLength" : 72,
            "byteOffset" : 95688
        },
        {
            "buffer" : 0,
            "byteLength" : 192,
            "byteOffset" : 95760
        },
        {
            "buffer" : 0,
            "byteLength" : 192,
            "byteOffset" : 95952
        },
        {
            "buffer" : 0,
            "byteLength" : 128,
            "byteOffset" : 96144
        },
        {
            "buffer" : 0,
            "byteLength" : 48,
            "byteOffset" : 96272
        },
        {
            "buffer" : 0,
            "byteLength" : 92589,
            "byteOffset" : 96320
        },
        {
            "buffer" : 0,
            "byteLength" : 4296,
            "byteOffset" : 188912
        },
        {
            "buffer" : 0,
            "byteLength" : 4296,
            "byteOffset" : 193208
        },
        {
            "buffer" : 0,
            "byteLength" : 2864,
            "byteOffset" : 197504
        },
        {
            "buffer" : 0,
            "byteLength" : 1128,
            "byteOffset" : 200368
        },
        {
            "buffer" : 0,
            "byteLength" : 484698,
            "byteOffset" : 201496
        },
        {
            "buffer" : 0,
            "byteLength" : 576,
            "byteOffset" : 686196
        },
        {
            "buffer" : 0,
            "byteLength" : 576,
            "byteOffset" : 686772
        },
        {
            "buffer" : 0,
            "byteLength" : 384,
            "byteOffset" : 687348
        },
        {
            "buffer" : 0,
            "byteLength" : 144,
            "byteOffset" : 687732
        },
        {
            "buffer" : 0,
            "byteLength" : 479600,
            "byteOffset" : 687876
        }
    ],
    "buffers" : [
        {
            "byteLength" : 1167476,
            "uri" : "data:application/octet-stream;base64,"
        }
    ]
}
